# xmcd
#
# Track frame offsets: 
#        150
#        16879
#        27918
#        44398
#        65519
#        79054
#        94945
#        111334
#        128830
#        150474
#        162729
#        178879
#        195831
#
# Disc length: 2810 seconds
#
# Revision: 0
# Processed by: cddbd v1.5.1PL0 Copyright (c) Steve Scherf et al.
# Submitted via: ExactAudioCopy v0.95a5
#
DISCID=a70af80d
DTITLE=Wild Carrot - Hope
DYEAR=2003
DGENRE=Country
TTITLE0=Real Love
TTITLE1=Bitter Blood
TTITLE2=Bringing On The Rain
TTITLE3=Tracks
TTITLE4=Light Enough To Find My Way
TTITLE5=Out Of The Deep End
TTITLE6=Tide And The River Rising
TTITLE7=Running From Mercy
TTITLE8=Lay Me Down
TTITLE9=Hero
TTITLE10=Devil's Rain
TTITLE11=These Songs
TTITLE12=Hope
EXTD=
EXTT0=
EXTT1=
EXTT2=
EXTT3=
EXTT4=
EXTT5=
EXTT6=
EXTT7=
EXTT8=
EXTT9=
EXTT10=
EXTT11=
EXTT12=
PLAYORDER=
